<svg width="266" height="78" viewBox="0 0 266 78" fill="none" xmlns="http://www.w3.org/2000/svg">
<path d="M10.9679 49.144C9.81594 49.144 8.73594 49.012 7.72794 48.748C6.71994 48.484 5.69994 48.04 4.66794 47.416L5.92794 43.672C6.64794 44.2 7.42794 44.632 8.26794 44.968C9.10794 45.28 9.98394 45.436 10.8959 45.436C11.9039 45.436 12.7079 45.256 13.3079 44.896C13.9319 44.512 14.2439 43.948 14.2439 43.204C14.2439 42.676 13.8959 42.136 13.1999 41.584C12.5279 41.008 11.7119 40.444 10.7519 39.892C10.1759 39.556 9.53994 39.232 8.84394 38.92C8.14794 38.584 7.48794 38.2 6.86394 37.768C6.26394 37.312 5.75994 36.76 5.35194 36.112C4.94394 35.44 4.73994 34.6 4.73994 33.592C4.73994 31.936 5.32794 30.628 6.50394 29.668C7.70394 28.684 9.28794 28.192 11.2559 28.192C12.3359 28.192 13.3439 28.312 14.2799 28.552C15.2399 28.792 16.1039 29.2 16.8719 29.776L15.8279 33.556C15.3959 33.124 14.7719 32.752 13.9559 32.44C13.1399 32.128 12.2279 31.972 11.2199 31.972C10.3799 31.972 9.69594 32.08 9.16794 32.296C8.66394 32.488 8.41194 32.872 8.41194 33.448C8.41194 33.808 8.54394 34.156 8.80794 34.492C9.09594 34.804 9.44394 35.104 9.85194 35.392C10.2839 35.656 10.7399 35.92 11.2199 36.184C11.7239 36.424 12.2039 36.664 12.6599 36.904C14.3159 37.816 15.5639 38.74 16.4039 39.676C17.2439 40.588 17.6639 41.728 17.6639 43.096C17.6639 45.136 17.0519 46.66 15.8279 47.668C14.6279 48.652 13.0079 49.144 10.9679 49.144ZM24.3796 32.008V37.48H28.3036C29.1676 37.48 29.8276 37.264 30.2836 36.832C30.7636 36.4 31.0036 35.74 31.0036 34.852C31.0036 33.892 30.7636 33.184 30.2836 32.728C29.8276 32.248 29.1676 32.008 28.3036 32.008H24.3796ZM24.3796 41.152V49H20.7076V28.336H28.4116C29.3476 28.336 30.1996 28.492 30.9676 28.804C31.7356 29.092 32.3956 29.512 32.9476 30.064C33.4996 30.616 33.9196 31.288 34.2076 32.08C34.5196 32.872 34.6756 33.76 34.6756 34.744C34.6756 36.784 34.0636 38.368 32.8396 39.496C31.6396 40.6 30.0556 41.152 28.0876 41.152H24.3796ZM39.5505 41.26H44.2305L41.8185 33.124L39.5505 41.26ZM44.2305 28.336L50.3145 49H46.3545L45.3105 45.364H38.4345L37.4265 49H33.4305L39.5145 28.336H44.2305ZM55.7038 32.008V37.48H59.6278C60.4918 37.48 61.1518 37.264 61.6078 36.832C62.0878 36.4 62.3278 35.74 62.3278 34.852C62.3278 33.892 62.0878 33.184 61.6078 32.728C61.1518 32.248 60.4918 32.008 59.6278 32.008H55.7038ZM58.6198 41.152H55.7038V49H52.0318V28.336H59.7358C61.6078 28.336 63.1198 28.9 64.2718 30.028C65.4238 31.156 65.9998 32.728 65.9998 34.744C65.9998 36.208 65.6878 37.432 65.0638 38.416C64.4398 39.4 63.5398 40.156 62.3638 40.684L66.2878 49H62.3278L58.6198 41.152ZM75.3441 40.612L72.8601 44.32V49H69.1881V28.336H72.8601V38.416L79.3761 28.336H83.8041L77.7561 37.336L84.1641 49H79.9521L75.3441 40.612ZM87.0123 28.336H90.6843V45.328H99.0003V49H87.0123V28.336ZM101.356 28.336H112.696V32.008H105.028V36.58H109.816V40.252H105.028V45.328H112.696V49H101.356V28.336ZM127.985 32.008V36.58H132.917V40.252H127.985V49H124.313V28.336H135.653V32.008H127.985ZM145.188 49.072C142.86 49.072 141.06 48.34 139.788 46.876C138.54 45.412 137.916 43.3 137.916 40.54V28.336H141.588V41.26C141.588 42.772 141.9 43.84 142.524 44.464C143.148 45.088 144.036 45.4 145.188 45.4C146.268 45.4 147.096 45.088 147.672 44.464C148.248 43.84 148.536 42.772 148.536 41.26V28.336H152.244V40.504C152.244 43.264 151.632 45.388 150.408 46.876C149.184 48.34 147.444 49.072 145.188 49.072ZM159.204 32.008V37.48H163.128C163.992 37.48 164.652 37.264 165.108 36.832C165.588 36.4 165.828 35.74 165.828 34.852C165.828 33.892 165.588 33.184 165.108 32.728C164.652 32.248 163.992 32.008 163.128 32.008H159.204ZM162.12 41.152H159.204V49H155.532V28.336H163.236C165.108 28.336 166.62 28.9 167.772 30.028C168.924 31.156 169.5 32.728 169.5 34.744C169.5 36.208 169.188 37.432 168.564 38.416C167.94 39.4 167.04 40.156 165.864 40.684L169.788 49H165.828L162.12 41.152ZM176.252 35.356V49H172.58V28.336H176.828L183.488 41.404V28.336H187.16V49H183.2L176.252 35.356ZM190.477 28.336H194.149V49H190.477V28.336ZM206.217 32.008V49H202.221V32.008H196.965V28.336H211.401V32.008H206.217ZM221.266 49.072C218.938 49.072 217.138 48.34 215.866 46.876C214.618 45.412 213.994 43.3 213.994 40.54V28.336H217.666V41.26C217.666 42.772 217.978 43.84 218.602 44.464C219.226 45.088 220.114 45.4 221.266 45.4C222.346 45.4 223.174 45.088 223.75 44.464C224.326 43.84 224.614 42.772 224.614 41.26V28.336H228.322V40.504C228.322 43.264 227.71 45.388 226.486 46.876C225.262 48.34 223.522 49.072 221.266 49.072ZM235.282 32.008V37.48H239.206C240.07 37.48 240.73 37.264 241.186 36.832C241.666 36.4 241.906 35.74 241.906 34.852C241.906 33.892 241.666 33.184 241.186 32.728C240.73 32.248 240.07 32.008 239.206 32.008H235.282ZM238.198 41.152H235.282V49H231.61V28.336H239.314C241.186 28.336 242.698 28.9 243.85 30.028C245.002 31.156 245.578 32.728 245.578 34.744C245.578 36.208 245.266 37.432 244.642 38.416C244.018 39.4 243.118 40.156 241.942 40.684L245.866 49H241.906L238.198 41.152ZM248.766 28.336H260.106V32.008H252.438V36.58H257.226V40.252H252.438V45.328H260.106V49H248.766V28.336Z" fill="black"/>
</svg>
